<?xml version="1.0" encoding="utf-8"?>
<!-- Generator: Adobe Illustrator 24.2.1, SVG Export Plug-In . SVG Version: 6.00 Build 0)  -->
<svg version="1.1" id="Layer_1" xmlns="http://www.w3.org/2000/svg" xmlns:xlink="http://www.w3.org/1999/xlink" x="0px" y="0px"
	 viewBox="0 0 10.82 10.82" style="enable-background:new 0 0 10.82 10.82;" xml:space="preserve">
<style type="text/css">
	.st0{fill:#0E84C7;}
	.st1{fill:#515151;}
	.st2{fill:#FFCC0C;}
	.st3{fill:#F2E855;}
	.st4{fill:#F5ECDF;}
	.st5{fill:#6CC5F0;}
	.st6{fill:#A8DBED;}
</style>
<g>
	<path class="st0" d="M1.08,8.59L0.68,6.34h0.37l0.15,0.98c0.04,0.27,0.07,0.53,0.09,0.8h0.01c0.03-0.28,0.08-0.53,0.13-0.8
		l0.18-0.98H1.9l0.18,0.97c0.04,0.26,0.09,0.51,0.12,0.82H2.2c0.03-0.31,0.07-0.55,0.1-0.81l0.14-0.97H2.8L2.38,8.59H2.02l-0.17-0.9
		C1.81,7.47,1.77,7.22,1.74,6.95H1.73C1.7,7.22,1.66,7.46,1.61,7.7L1.43,8.59H1.08z"/>
	<path class="st0" d="M3.3,7.87c0,0.36,0.17,0.46,0.36,0.46c0.12,0,0.22-0.03,0.29-0.06L4,8.54C3.9,8.58,3.74,8.61,3.59,8.61
		c-0.42,0-0.64-0.3-0.64-0.81c0-0.54,0.26-0.87,0.61-0.87c0.34,0,0.51,0.31,0.51,0.75c0,0.09,0,0.15-0.01,0.19H3.3z M3.74,7.62
		c0-0.26-0.08-0.42-0.21-0.42c-0.15,0-0.22,0.23-0.23,0.42H3.74z"/>
	<path class="st0" d="M5.02,8.59L5,8.43H4.99c-0.08,0.13-0.2,0.19-0.34,0.19c-0.23,0-0.41-0.2-0.41-0.48c0-0.42,0.35-0.59,0.72-0.6
		V7.5c0-0.17-0.07-0.29-0.24-0.29c-0.12,0-0.21,0.03-0.3,0.09L4.34,7.05C4.42,7,4.59,6.94,4.79,6.94c0.42,0,0.53,0.29,0.53,0.63
		v0.65c0,0.13,0,0.26,0.02,0.37H5.02z M4.97,7.78c-0.14,0-0.39,0.04-0.39,0.32c0,0.18,0.1,0.25,0.18,0.25
		c0.09,0,0.17-0.06,0.21-0.19c0.01-0.03,0.01-0.05,0.01-0.08V7.78z"/>
	<path class="st0" d="M6.08,6.53v0.44h0.32v0.26H6.08v0.84c0,0.2,0.08,0.25,0.17,0.25c0.04,0,0.08,0,0.11-0.01l0.01,0.28
		C6.31,8.6,6.23,8.61,6.13,8.61c-0.12,0-0.22-0.03-0.29-0.1c-0.08-0.08-0.12-0.2-0.12-0.44V7.22H5.52V6.96h0.19V6.62L6.08,6.53z"/>
	<path class="st0" d="M6.6,6.28h0.36v0.86h0.01C7,7.08,7.05,7.03,7.11,7c0.06-0.04,0.13-0.06,0.22-0.06c0.26,0,0.4,0.21,0.4,0.63
		v1.03H7.37V7.58c0-0.18-0.04-0.34-0.19-0.34c-0.09,0-0.17,0.06-0.21,0.2C6.97,7.47,6.96,7.52,6.96,7.56v1.03H6.6V6.28z"/>
	<path class="st0" d="M8.33,7.87c0,0.36,0.17,0.46,0.36,0.46c0.12,0,0.22-0.03,0.29-0.06l0.05,0.26c-0.1,0.05-0.26,0.08-0.41,0.08
		c-0.42,0-0.64-0.3-0.64-0.81c0-0.54,0.26-0.87,0.61-0.87c0.34,0,0.51,0.31,0.51,0.75c0,0.09,0,0.15-0.01,0.19H8.33z M8.78,7.62
		c0-0.26-0.08-0.42-0.21-0.42c-0.15,0-0.22,0.23-0.23,0.42H8.78z"/>
	<path class="st0" d="M9.36,7.42c0-0.15-0.01-0.32-0.01-0.46h0.31l0.02,0.25h0.01c0.06-0.17,0.2-0.27,0.33-0.27
		c0.03,0,0.05,0,0.08,0.01V7.3c-0.02,0-0.04,0-0.08,0c-0.12,0-0.25,0.1-0.29,0.28C9.73,7.61,9.72,7.67,9.72,7.73v0.86H9.36V7.42z"/>
</g>
<g>
	<g>
		<path class="st1" d="M2.51,9.11h0.13v0.83c0,0.26-0.1,0.34-0.27,0.34c-0.03,0-0.06,0-0.09-0.01l0.01-0.11
			c0.02,0,0.04,0.01,0.06,0.01c0.09,0,0.15-0.04,0.15-0.22V9.11z"/>
		<path class="st1" d="M3.34,9.86c0,0.32-0.15,0.43-0.28,0.43c-0.15,0-0.27-0.14-0.27-0.43c0-0.3,0.14-0.43,0.28-0.43
			C3.22,9.43,3.34,9.57,3.34,9.86z M2.92,9.86c0,0.14,0.03,0.33,0.14,0.33c0.11,0,0.14-0.2,0.14-0.33c0-0.13-0.02-0.32-0.14-0.32
			C2.95,9.53,2.92,9.73,2.92,9.86z"/>
		<path class="st1" d="M3.99,10.05c0,0.09,0,0.17,0.01,0.23H3.88l-0.01-0.09h0c-0.03,0.04-0.09,0.1-0.18,0.1
			c-0.15,0-0.2-0.11-0.2-0.32V9.44h0.13v0.51c0,0.13,0.02,0.23,0.11,0.23c0.08,0,0.11-0.07,0.12-0.11c0-0.02,0.01-0.05,0.01-0.07
			V9.44h0.13V10.05z"/>
		<path class="st1" d="M4.17,9.66c0-0.07,0-0.15-0.01-0.22h0.12l0.01,0.13h0c0.03-0.08,0.1-0.14,0.17-0.14c0.01,0,0.02,0,0.03,0
			v0.14c-0.01,0-0.02,0-0.03,0c-0.08,0-0.15,0.08-0.16,0.17c0,0.02,0,0.05,0,0.08v0.46H4.17V9.66z"/>
		<path class="st1" d="M4.6,9.66c0-0.1,0-0.15-0.01-0.22h0.12l0.01,0.1h0c0.04-0.07,0.1-0.11,0.19-0.11c0.12,0,0.2,0.08,0.2,0.29
			v0.56H4.98V9.74c0-0.1-0.02-0.2-0.12-0.2c-0.06,0-0.11,0.05-0.13,0.14c0,0.02-0.01,0.05-0.01,0.07v0.52H4.6V9.66z"/>
		<path class="st1" d="M5.63,10.27l-0.01-0.09h0c-0.04,0.06-0.09,0.1-0.17,0.1c-0.11,0-0.2-0.09-0.2-0.24c0-0.21,0.17-0.3,0.36-0.3
			V9.72c0-0.11-0.03-0.19-0.13-0.19c-0.05,0-0.1,0.02-0.14,0.04L5.31,9.48C5.34,9.46,5.42,9.43,5.5,9.43c0.17,0,0.24,0.11,0.24,0.3
			v0.36c0,0.06,0,0.13,0.01,0.19H5.63z M5.61,9.84c-0.07,0-0.23,0.01-0.23,0.19c0,0.11,0.06,0.15,0.1,0.15
			c0.06,0,0.11-0.04,0.12-0.13c0-0.02,0-0.03,0-0.05V9.84z"/>
		<path class="st1" d="M5.93,9.08h0.13v1.19H5.93V9.08z"/>
		<path class="st1" d="M6.68,9.93L6.6,10.27H6.48l0.27-1.16h0.15l0.26,1.16H7.02L6.94,9.93H6.68z M6.92,9.82l-0.06-0.3
			C6.84,9.44,6.83,9.35,6.81,9.26H6.81C6.79,9.35,6.78,9.45,6.76,9.53L6.7,9.82H6.92z"/>
		<path class="st1" d="M7.28,9.7c0-0.13,0-0.2-0.01-0.26h0.12L7.4,9.55h0c0.05-0.09,0.11-0.12,0.18-0.12c0.15,0,0.24,0.15,0.24,0.43
			c0,0.31-0.13,0.43-0.26,0.43c-0.08,0-0.12-0.05-0.15-0.1h0v0.41H7.28V9.7z M7.41,9.97c0,0.02,0,0.05,0.01,0.07
			c0.03,0.12,0.08,0.14,0.12,0.14c0.11,0,0.15-0.15,0.15-0.32c0-0.17-0.04-0.32-0.15-0.32c-0.06,0-0.11,0.08-0.12,0.15
			c0,0.02,0,0.04,0,0.06V9.97z"/>
		<path class="st1" d="M7.97,9.7c0-0.13,0-0.2-0.01-0.26h0.12l0.01,0.11h0C8.14,9.46,8.2,9.43,8.27,9.43c0.15,0,0.24,0.15,0.24,0.43
			c0,0.31-0.13,0.43-0.26,0.43c-0.08,0-0.12-0.05-0.15-0.1h0v0.41H7.97V9.7z M8.1,9.97c0,0.02,0,0.05,0.01,0.07
			c0.03,0.12,0.09,0.14,0.12,0.14c0.11,0,0.15-0.15,0.15-0.32c0-0.17-0.04-0.32-0.15-0.32c-0.06,0-0.11,0.08-0.12,0.15
			c0,0.02,0,0.04,0,0.06V9.97z"/>
	</g>
</g>
<g id="Layer_2_1_">
	<g>
		<circle class="st2" cx="4.24" cy="2.12" r="1.74"/>
		<circle class="st3" cx="4.24" cy="2.12" r="1.19"/>
		<circle class="st4" cx="4.24" cy="2.12" r="0.6"/>
		<path class="st5" d="M7.72,3.19C7.77,3.05,7.8,2.89,7.8,2.73c0-0.82-0.67-1.49-1.49-1.49c-0.63,0-1.16,0.39-1.38,0.94
			c-0.19-0.12-0.43-0.2-0.67-0.2C3.56,1.98,3,2.54,2.99,3.24C2.51,3.41,2.15,3.87,2.15,4.42c0,0.69,0.54,1.25,1.23,1.26v0h4.05
			c0.69,0,1.26-0.56,1.26-1.26C8.7,3.82,8.28,3.32,7.72,3.19z"/>
		<path class="st6" d="M4.93,2.18c-0.19-0.12-0.43-0.2-0.67-0.2C3.56,1.98,3,2.54,2.99,3.24C2.51,3.41,2.15,3.87,2.15,4.42
			c0,0.27,0.09,0.53,0.23,0.73C2.32,5,2.28,4.83,2.28,4.65c0-0.55,0.38-1.02,0.87-1.2c0-0.7,0.58-1.27,1.28-1.27
			c0.25,0,0.49,0.07,0.69,0.2c0.22-0.56,0.77-0.95,1.41-0.95c0.28,0,0.54,0.08,0.77,0.21C7.04,1.39,6.69,1.24,6.31,1.24
			C5.68,1.24,5.15,1.63,4.93,2.18z"/>
		<path class="st6" d="M6.05,3.58C5.92,3.5,5.75,3.44,5.58,3.44c-0.49,0-0.88,0.39-0.88,0.88C4.35,4.45,4.1,4.77,4.1,5.16
			c0,0.19,0.06,0.37,0.16,0.52C4.22,5.56,4.2,5.44,4.2,5.32c0-0.39,0.27-0.72,0.61-0.85c0-0.5,0.4-0.9,0.9-0.9
			c0.18,0,0.34,0.05,0.48,0.14c0.16-0.39,0.54-0.67,0.99-0.67c0.2,0,0.38,0.05,0.54,0.15c-0.19-0.17-0.43-0.27-0.7-0.27
			C6.58,2.93,6.21,3.2,6.05,3.58z"/>
	</g>
</g>
</svg>
