<?xml version="1.0" encoding="utf-8"?>
<!-- Generator: Adobe Illustrator 26.3.1, SVG Export Plug-In . SVG Version: 6.00 Build 0)  -->
<svg version="1.1" id="Layer_1" xmlns="http://www.w3.org/2000/svg" xmlns:xlink="http://www.w3.org/1999/xlink" x="0px" y="0px"
	 viewBox="0 0 90.1 90.1" style="enable-background:new 0 0 90.1 90.1;" xml:space="preserve">
<style type="text/css">
	.st0{fill:#FFFEFF;}
	.st1{fill:#CDE8F8;}
	.st2{fill:#FFCC0C;}
	.st3{fill:#F2E855;}
	.st4{fill:#F5ECDF;}
	.st5{fill:#6CC5F0;}
	.st6{fill:#A8DBED;}
</style>
<g>
	<path class="st0" d="M9.4,70.8L6.1,52.2h3.1l1.2,8.1c0.3,2.2,0.6,4.4,0.7,6.6h0.1c0.2-2.3,0.7-4.4,1.1-6.6l1.5-8.1h2.4l1.5,8
		c0.3,2.1,0.7,4.2,1,6.8h0c0.2-2.6,0.6-4.5,0.8-6.7l1.2-8h3l-3.5,18.5h-3l-1.4-7.4c-0.3-1.8-0.7-3.9-0.9-6.1h-0.1
		c-0.2,2.2-0.6,4.2-1,6.2l-1.5,7.4H9.4z"/>
	<path class="st0" d="M27.8,64.8c0,3,1.4,3.8,3,3.8c1,0,1.8-0.2,2.4-0.5l0.4,2.2c-0.8,0.3-2.1,0.6-3.4,0.6c-3.5,0-5.3-2.5-5.3-6.7
		c0-4.5,2.1-7.2,5-7.2c2.8,0,4.2,2.6,4.2,6.2c0,0.7,0,1.2-0.1,1.6H27.8z M31.4,62.7c0-2.1-0.7-3.5-1.7-3.5c-1.2,0-1.8,1.9-1.9,3.5
		H31.4z"/>
	<path class="st0" d="M42,70.8l-0.2-1.3h-0.1c-0.7,1.1-1.7,1.6-2.8,1.6c-1.9,0-3.4-1.7-3.4-4c0-3.5,2.9-4.9,5.9-5v-0.3
		c0-1.4-0.6-2.4-2-2.4c-1,0-1.7,0.2-2.5,0.7L36.4,58c0.7-0.4,2.1-0.9,3.7-0.9c3.5,0,4.4,2.4,4.4,5.2v5.4c0,1.1,0,2.1,0.2,3.1H42z
		 M41.6,64.1c-1.2,0-3.2,0.3-3.2,2.6c0,1.5,0.8,2.1,1.5,2.1c0.7,0,1.4-0.5,1.7-1.6c0.1-0.2,0.1-0.4,0.1-0.7L41.6,64.1L41.6,64.1z"/>
	<path class="st0" d="M50.7,53.7v3.6h2.6v2.1h-2.6v6.9c0,1.7,0.7,2.1,1.4,2.1c0.3,0,0.7,0,0.9-0.1l0.1,2.3c-0.5,0.1-1.2,0.2-2,0.2
		c-1,0-1.8-0.2-2.4-0.8c-0.7-0.7-1-1.7-1-3.6v-7h-1.7v-2.1h1.6v-2.8L50.7,53.7z"/>
	<path class="st0" d="M55,51.7h3v7.1h0.1c0.2-0.5,0.7-0.9,1.2-1.2c0.5-0.3,1.1-0.5,1.8-0.5c2.1,0,3.3,1.7,3.3,5.2v8.5h-3v-8.4
		c0-1.5-0.3-2.8-1.6-2.8c-0.7,0-1.4,0.5-1.7,1.7c0,0.2-0.1,0.7-0.1,1v8.5h-3V51.7z"/>
	<path class="st0" d="M69.3,64.8c0,3,1.4,3.8,3,3.8c1,0,1.8-0.2,2.4-0.5l0.4,2.1c-0.8,0.4-2.1,0.7-3.4,0.7c-3.5,0-5.3-2.5-5.3-6.7
		c0-4.5,2.1-7.2,5-7.2c2.8,0,4.2,2.6,4.2,6.2c0,0.7,0,1.2-0.1,1.6H69.3z M73.1,62.7c0-2.1-0.7-3.5-1.7-3.5c-1.2,0-1.8,1.9-1.9,3.5
		H73.1z"/>
	<path class="st0" d="M77.8,61.1c0-1.2-0.1-2.6-0.1-3.8h2.6l0.2,2.1h0.1c0.5-1.4,1.7-2.2,2.7-2.2c0.2,0,0.4,0,0.7,0.1v2.9
		c-0.2,0-0.3,0-0.7,0c-1,0-2.1,0.8-2.4,2.3c0,0.2-0.1,0.7-0.1,1.2v7.1h-3V61.1z"/>
</g>
<g>
	<g>
		<path class="st1" d="M21.3,75.1h1.1v6.9c0,2.1-0.8,2.8-2.2,2.8c-0.2,0-0.5,0-0.7-0.1l0.1-0.9c0.2,0,0.3,0.1,0.5,0.1
			c0.7,0,1.2-0.3,1.2-1.8L21.3,75.1L21.3,75.1z"/>
		<path class="st1" d="M28.1,81.3c0,2.6-1.2,3.6-2.3,3.6c-1.2,0-2.2-1.2-2.2-3.6c0-2.5,1.2-3.6,2.3-3.6
			C27.1,77.7,28.1,78.9,28.1,81.3z M24.6,81.3c0,1.2,0.2,2.7,1.2,2.7c0.9,0,1.2-1.7,1.2-2.7s-0.2-2.6-1.2-2.6
			C24.9,78.5,24.6,80.2,24.6,81.3z"/>
		<path class="st1" d="M33.5,82.8c0,0.7,0,1.4,0.1,1.9h-1L32.5,84l0,0c-0.2,0.3-0.7,0.8-1.5,0.8c-1.2,0-1.7-0.9-1.7-2.6v-4.4h1.1V82
			c0,1.1,0.2,1.9,0.9,1.9c0.7,0,0.9-0.6,1-0.9c0-0.2,0.1-0.4,0.1-0.6v-4.6h1.1C33.5,77.8,33.5,82.8,33.5,82.8z"/>
		<path class="st1" d="M35,79.6c0-0.6,0-1.2-0.1-1.8h1l0.1,1.1l0,0c0.2-0.7,0.8-1.2,1.4-1.2c0.1,0,0.2,0,0.2,0v1.2
			c-0.1,0-0.2,0-0.2,0c-0.7,0-1.2,0.7-1.3,1.4c0,0.2,0,0.4,0,0.7v3.8H35V79.6z"/>
		<path class="st1" d="M38.5,79.6c0-0.8,0-1.2-0.1-1.8h1l0.1,0.8l0,0c0.3-0.6,0.8-0.9,1.6-0.9c1,0,1.7,0.7,1.7,2.4v4.6h-1.1v-4.5
			c0-0.8-0.2-1.7-1-1.7c-0.5,0-0.9,0.4-1.1,1.2c0,0.2-0.1,0.4-0.1,0.6v4.3h-1V79.6z"/>
		<path class="st1" d="M47,84.6l-0.1-0.7l0,0c-0.3,0.5-0.7,0.8-1.4,0.8c-0.9,0-1.7-0.7-1.7-2c0-1.7,1.4-2.5,3-2.5v-0.2
			c0-0.9-0.2-1.6-1.1-1.6c-0.4,0-0.8,0.2-1.2,0.3l-0.2-0.7c0.2-0.2,0.9-0.4,1.6-0.4c1.4,0,2,0.9,2,2.5v3c0,0.5,0,1.1,0.1,1.6
			L47,84.6L47,84.6z M46.9,81.1c-0.6,0-1.9,0.1-1.9,1.6c0,0.9,0.5,1.2,0.8,1.2c0.5,0,0.9-0.3,1-1.1c0-0.2,0-0.2,0-0.4L46.9,81.1
			L46.9,81.1z"/>
		<path class="st1" d="M49.5,74.8h1.1v9.8h-1.1V74.8z"/>
		<path class="st1" d="M55.7,81.8L55,84.6h-1l2.2-9.6h1.2l2.1,9.6h-1.2l-0.7-2.8H55.7z M57.7,80.9l-0.5-2.5
			c-0.2-0.7-0.2-1.4-0.4-2.1l0,0c-0.2,0.7-0.2,1.6-0.4,2.2l-0.5,2.4H57.7z"/>
		<path class="st1" d="M60.7,79.9c0-1.1,0-1.7-0.1-2.1h1l0.1,0.9l0,0c0.4-0.7,0.9-1,1.5-1c1.2,0,2,1.2,2,3.6c0,2.6-1.1,3.6-2.1,3.6
			c-0.7,0-1-0.4-1.2-0.8l0,0v3.4h-1.1V79.9z M61.7,82.2c0,0.2,0,0.4,0.1,0.6c0.2,1,0.7,1.2,1,1.2c0.9,0,1.2-1.2,1.2-2.6
			s-0.3-2.6-1.2-2.6c-0.5,0-0.9,0.7-1,1.2c0,0.2,0,0.3,0,0.5L61.7,82.2L61.7,82.2z"/>
		<path class="st1" d="M66.4,79.9c0-1.1,0-1.7-0.1-2.1h1l0.1,0.9l0,0c0.4-0.7,0.9-1,1.5-1c1.2,0,2,1.2,2,3.6c0,2.6-1.1,3.6-2.1,3.6
			c-0.7,0-1-0.4-1.2-0.8l0,0v3.4h-1.1V79.9z M67.4,82.2c0,0.2,0,0.4,0.1,0.6c0.2,1,0.7,1.2,1,1.2c0.9,0,1.2-1.2,1.2-2.6
			s-0.3-2.6-1.2-2.6c-0.5,0-0.9,0.7-1,1.2c0,0.2,0,0.3,0,0.5L67.4,82.2L67.4,82.2z"/>
	</g>
</g>
<g id="Layer_2_1_">
	<g>
		<circle class="st2" cx="35.5" cy="17.3" r="14.4"/>
		<circle class="st3" cx="35.5" cy="17.3" r="9.8"/>
		<circle class="st4" cx="35.5" cy="17.3" r="5"/>
		<path class="st5" d="M64.3,26.1c0.4-1.2,0.7-2.5,0.7-3.8C65,15.6,59.4,10,52.6,10c-5.2,0-9.6,3.2-11.4,7.8c-1.6-1-3.6-1.7-5.5-1.7
			c-5.8,0-10.4,4.6-10.5,10.4c-4,1.4-6.9,5.2-6.9,9.7c0,5.7,4.5,10.3,10.2,10.4l0,0h33.5c5.7,0,10.4-4.6,10.4-10.4
			C72.4,31.4,68.9,27.2,64.3,26.1z"/>
		<path class="st6" d="M41.2,17.8c-1.6-1-3.6-1.7-5.5-1.7c-5.8,0-10.4,4.6-10.5,10.4c-4,1.4-6.9,5.2-6.9,9.7c0,2.2,0.7,4.4,1.9,6
			c-0.5-1.2-0.8-2.6-0.8-4.1c0-4.5,3.1-8.4,7.2-9.9c0-5.8,4.8-10.5,10.6-10.5c2.1,0,4,0.6,5.7,1.7c1.8-4.6,6.4-7.8,11.6-7.8
			c2.3,0,4.5,0.7,6.4,1.7c-2.1-2.1-5-3.3-8.2-3.3C47.4,10,43.1,13.3,41.2,17.8z"/>
		<path class="st6" d="M50.5,29.4c-1.1-0.7-2.5-1.2-3.9-1.2c-4,0-7.3,3.2-7.3,7.3c-2.9,1.1-5,3.7-5,6.9c0,1.6,0.5,3.1,1.3,4.3
			c-0.3-1-0.5-2-0.5-3c0-3.2,2.2-5.9,5-7c0-4.1,3.3-7.4,7.4-7.4c1.5,0,2.8,0.4,4,1.2c1.3-3.2,4.5-5.5,8.2-5.5c1.7,0,3.1,0.4,4.5,1.2
			c-1.6-1.4-3.6-2.2-5.8-2.2C54.9,24,51.8,26.2,50.5,29.4z"/>
	</g>
</g>
</svg>
