<?xml version="1.0" encoding="utf-8"?>
<!-- Generator: Adobe Illustrator 24.2.1, SVG Export Plug-In . SVG Version: 6.00 Build 0)  -->
<svg version="1.1" id="Layer_1" xmlns="http://www.w3.org/2000/svg" xmlns:xlink="http://www.w3.org/1999/xlink" x="0px" y="0px"
	 viewBox="0 0 2.83 2.83" style="enable-background:new 0 0 2.83 2.83;" xml:space="preserve">
<style type="text/css">
	.st0{fill:#FFCC13;}
	.st1{fill:#F1E858;}
	.st2{fill:#F5ECDF;}
	.st3{fill:#6EC4F0;}
	.st4{fill:#A8DBED;}
</style>
<g id="Layer_2_1_">
	<g>
		<circle class="st0" cx="0.94" cy="1.05" r="0.7"/>
		<circle class="st1" cx="0.94" cy="1.05" r="0.48"/>
		<circle class="st2" cx="0.94" cy="1.05" r="0.24"/>
		<path class="st3" d="M2.34,1.48C2.36,1.43,2.37,1.36,2.37,1.3c0-0.33-0.27-0.6-0.6-0.6c-0.25,0-0.47,0.16-0.56,0.38
			C1.14,1.03,1.05,0.99,0.95,0.99c-0.28,0-0.51,0.23-0.51,0.51C0.25,1.57,0.1,1.76,0.1,1.98c0,0.28,0.22,0.5,0.49,0.51l0,0h1.63
			c0.28,0,0.51-0.23,0.51-0.51C2.74,1.74,2.57,1.53,2.34,1.48z"/>
		<path class="st4" d="M1.22,1.08C1.14,1.03,1.05,0.99,0.95,0.99c-0.28,0-0.51,0.23-0.51,0.51C0.25,1.57,0.1,1.76,0.1,1.98
			c0,0.11,0.04,0.21,0.09,0.29c-0.02-0.06-0.04-0.13-0.04-0.2c0-0.22,0.15-0.41,0.35-0.48c0-0.28,0.23-0.51,0.52-0.51
			c0.1,0,0.2,0.03,0.28,0.08c0.09-0.23,0.31-0.38,0.57-0.38c0.11,0,0.22,0.03,0.31,0.08c-0.1-0.1-0.25-0.16-0.4-0.16
			C1.52,0.7,1.31,0.85,1.22,1.08z"/>
		<path class="st4" d="M1.67,1.64C1.62,1.61,1.55,1.58,1.48,1.58c-0.2,0-0.35,0.16-0.35,0.35C0.99,1.99,0.89,2.12,0.89,2.27
			c0,0.08,0.02,0.15,0.06,0.21c-0.02-0.05-0.02-0.1-0.02-0.14c0-0.16,0.11-0.29,0.25-0.34c0-0.2,0.16-0.36,0.36-0.36
			c0.07,0,0.14,0.02,0.19,0.06c0.06-0.16,0.22-0.27,0.4-0.27c0.08,0,0.15,0.02,0.22,0.06C2.27,1.41,2.17,1.37,2.06,1.37
			C1.88,1.38,1.74,1.49,1.67,1.64z"/>
	</g>
</g>
</svg>
