<?xml version="1.0" encoding="utf-8"?>
<!-- Generator: Adobe Illustrator 26.3.1, SVG Export Plug-In . SVG Version: 6.00 Build 0)  -->
<svg version="1.1" id="Layer_1" xmlns="http://www.w3.org/2000/svg" xmlns:xlink="http://www.w3.org/1999/xlink" x="0px" y="0px"
	 viewBox="0 0 24 20.2" style="enable-background:new 0 0 24 20.2;" xml:space="preserve">
<style type="text/css">
	.st0{fill-rule:evenodd;clip-rule:evenodd;fill:#FD455F;}
</style>
<path class="st0" d="M12.7,2.4L12,3l-0.7-0.7c-1.2-1.2-2.8-1.9-4.5-1.9c-1.7,0-3.3,0.7-4.5,1.9l0,0c-2.5,2.6-2.5,6.6,0,9.2l6.9,7
	c0.7,0.7,1.7,1.2,2.8,1.2c1,0,2-0.4,2.8-1.2l6.9-7c2.5-2.6,2.5-6.6,0-9.2l0,0c-1.2-1.2-2.8-1.9-4.5-1.9C15.5,0.5,13.8,1.2,12.7,2.4z
	"/>
</svg>
